<?xml version="1.0" encoding="utf-8"?>
<!-- Generator: Adobe Illustrator 23.0.0, SVG Export Plug-In . SVG Version: 6.00 Build 0)  -->
<svg version="1.1" id="Capa_1" xmlns="http://www.w3.org/2000/svg" xmlns:xlink="http://www.w3.org/1999/xlink" x="0px" y="0px"
	 viewBox="0 0 100 43.3" style="enable-background:new 0 0 100 43.3;" xml:space="preserve">
<style type="text/css">
	.st0{fill:#AF2222;}
	.st1{opacity:0.95;}
	.st2{opacity:0.55;}
	.st3{fill:#FFFFFF;}
	.st4{opacity:0.55;fill:#AF2222;stroke:#FFFFFF;stroke-width:0.25;stroke-miterlimit:10;}
	.st5{opacity:0.79;}
</style>
<g>
	<path class="st0" d="M34.8,19.3h-2.9v-5.9h-1V11h1V8.5h2.9V11h1.7v2.4h-1.7V19.3z"/>
	<path class="st0" d="M40.3,11v4.5c0,0.5,0.1,1,0.3,1.3c0.2,0.3,0.6,0.5,1.2,0.5c0.6,0,1-0.2,1.2-0.5c0.2-0.3,0.3-0.8,0.3-1.3V11h3
		v5c0,1.4-0.4,2.3-1.3,2.8c-0.8,0.5-1.9,0.8-3.2,0.8c-1.2,0-2.3-0.3-3.1-0.8c-0.9-0.5-1.3-1.4-1.3-2.8v-5H40.3z"/>
	<path class="st0" d="M51.1,12.4L51.1,12.4c0.3-0.5,0.7-0.9,1.2-1.1c0.5-0.2,1-0.4,1.6-0.4l0.6,0v2.8c0,0-0.1,0-0.1,0
		c0,0-0.1,0-0.1,0c-0.2-0.1-0.3-0.1-0.5-0.1c-0.2,0-0.3,0-0.5,0c-0.8,0-1.4,0.2-1.6,0.7c-0.3,0.5-0.4,1.1-0.4,1.8v3.3h-3V11h3V12.4z
		"/>
	<path class="st0" d="M58.1,6.7c0.3,0.3,0.5,0.7,0.5,1.2c0,0.5-0.2,0.8-0.5,1.2c-0.3,0.3-0.7,0.5-1.2,0.5c-0.5,0-0.8-0.2-1.2-0.5
		c-0.3-0.3-0.5-0.7-0.5-1.2c0-0.5,0.2-0.9,0.5-1.2c0.3-0.3,0.7-0.5,1.2-0.5C57.4,6.2,57.8,6.3,58.1,6.7z M58.4,19.3h-3V11h3V19.3z"
		/>
	<path class="st0" d="M66.9,11.3l-1,1.9c-0.1-0.1-0.3-0.1-0.4-0.2c-0.2-0.1-0.3-0.1-0.5-0.1c-0.1,0-0.2,0-0.3-0.1
		c-0.1,0-0.2,0-0.3,0c0,0-0.1,0-0.2,0c-0.1,0-0.1,0-0.2,0c-0.2,0-0.3,0.1-0.4,0.2c-0.1,0.1-0.2,0.2-0.2,0.3c0,0.2,0.1,0.3,0.2,0.4
		c0.2,0.1,0.3,0.2,0.5,0.2c0.1,0,0.2,0.1,0.3,0.1c0.1,0,0.2,0,0.3,0c0.7,0.1,1.3,0.4,1.7,0.8c0.5,0.4,0.7,0.9,0.7,1.7
		c0,1.1-0.4,1.8-1.2,2.3c-0.8,0.5-1.6,0.7-2.6,0.8c0,0-0.1,0-0.1,0c0,0-0.1,0-0.1,0c-0.6,0-1.2-0.1-1.7-0.2
		c-0.6-0.2-1.1-0.4-1.6-0.7l1.1-2.1c0.2,0.1,0.4,0.3,0.6,0.4c0.2,0.1,0.5,0.2,0.7,0.3c0.2,0.1,0.3,0.1,0.5,0.1c0.2,0,0.3,0,0.5,0
		c0,0,0.1,0,0.1,0c0,0,0.1,0,0.2,0c0.2,0,0.3-0.1,0.4-0.2c0.1-0.1,0.2-0.2,0.2-0.4c0-0.2-0.1-0.4-0.3-0.5s-0.5-0.2-0.8-0.3
		c-0.1,0-0.2,0-0.3-0.1c-0.1,0-0.2-0.1-0.3-0.1c-0.5-0.1-0.9-0.3-1.3-0.6c-0.4-0.3-0.6-0.8-0.6-1.6c0-1,0.4-1.7,1.1-2.2
		c0.8-0.5,1.6-0.7,2.5-0.7c0,0,0,0,0.1,0s0,0,0,0c0.5,0,0.9,0,1.4,0.1C66,11,66.4,11.1,66.9,11.3L66.9,11.3z"/>
	<path class="st0" d="M71.7,12L71.7,12c0.4-0.5,0.8-0.8,1.2-1c0.4-0.2,0.9-0.3,1.5-0.3c0.6,0,1.2,0.1,1.6,0.4
		c0.5,0.3,0.9,0.7,1.2,1.2c0.3-0.5,0.7-0.9,1.2-1.2c0.5-0.3,1.1-0.4,1.6-0.4c1.1,0,1.8,0.3,2.2,0.9c0.4,0.6,0.6,1.4,0.6,2.4v5.3h-3
		v-4c0,0,0,0,0,0c0-0.1,0-0.2,0-0.4c0-0.1,0-0.3,0-0.4c0-0.4-0.1-0.7-0.3-1c-0.2-0.3-0.5-0.5-0.9-0.5c-0.5,0-0.9,0.2-1.1,0.5
		c-0.2,0.4-0.3,0.7-0.3,1.2c0,0.1,0,0.2,0,0.3c0,0.1,0,0.2,0,0.3v4h-3v-4c0-0.1,0-0.2,0-0.4c0-0.1,0-0.3,0-0.4
		c0-0.4-0.1-0.7-0.3-1.1c-0.2-0.3-0.5-0.5-1-0.5c-0.5,0-0.8,0.2-1,0.5c-0.2,0.3-0.3,0.7-0.3,1.1c0,0.1,0,0.3,0,0.4
		c0,0.1,0,0.3,0,0.4v4h-3V11h3V12z"/>
	<path class="st0" d="M89.2,10.7c1.3,0,2.5,0.4,3.5,1.2c1,0.8,1.5,1.9,1.5,3.3c0,1.4-0.5,2.5-1.5,3.3c-1,0.8-2.2,1.2-3.5,1.2
		c-1.3,0-2.5-0.4-3.5-1.1c-1-0.8-1.5-1.8-1.5-3.3s0.5-2.5,1.5-3.3C86.6,11.1,87.8,10.8,89.2,10.7L89.2,10.7z M87.8,13.9
		c-0.3,0.4-0.5,0.8-0.5,1.3c0,0.5,0.2,1,0.5,1.3c0.3,0.4,0.8,0.5,1.4,0.5c0.6,0,1.1-0.2,1.4-0.5c0.3-0.4,0.5-0.8,0.5-1.3
		c0-0.5-0.2-1-0.5-1.3c-0.3-0.4-0.8-0.6-1.4-0.6C88.6,13.3,88.1,13.5,87.8,13.9z"/>
	<path class="st0" d="M40.1,31v0.3h-6.2c0,0.6,0.2,1.1,0.5,1.4c0.3,0.3,0.8,0.5,1.4,0.5c0.3,0,0.6-0.1,0.8-0.2
		c0.2-0.1,0.4-0.3,0.6-0.6H40c-0.2,1-0.8,1.7-1.6,2.2c-0.8,0.5-1.7,0.7-2.7,0.7c-1.4,0-2.5-0.4-3.4-1.1c-0.9-0.7-1.4-1.8-1.4-3.3
		c0-1.4,0.4-2.5,1.3-3.3c0.9-0.8,2-1.2,3.3-1.2c1.5,0,2.6,0.4,3.4,1.2C39.7,28.5,40.1,29.6,40.1,31L40.1,31z M37.4,29.6
		c-0.1-0.4-0.3-0.7-0.6-0.9c-0.3-0.2-0.7-0.4-1.1-0.4c-0.4,0-0.8,0.1-1.1,0.3c-0.3,0.2-0.5,0.5-0.6,1H37.4z"/>
	<path class="st0" d="M44.4,27.7L44.4,27.7c0.4-0.5,0.8-0.8,1.2-1c0.4-0.2,0.9-0.3,1.5-0.3c1.1,0,1.9,0.3,2.4,1
		c0.5,0.6,0.7,1.5,0.7,2.5V35h-3v-4.1c0,0,0,0,0-0.1s0-0.1,0-0.1c0-0.1,0-0.2,0-0.3c0-0.1,0-0.2,0-0.3c0-0.3-0.1-0.6-0.3-0.9
		c-0.2-0.3-0.5-0.4-1-0.4c-0.6,0-1,0.2-1.2,0.6c-0.2,0.4-0.3,0.8-0.3,1.4V35h-3v-8.3h3V27.7z"/>
	<path class="st0" d="M63.8,26.9v2.5c-0.2-0.2-0.5-0.3-0.7-0.4c-0.3-0.1-0.5-0.2-0.8-0.2c-0.6,0-1,0.2-1.4,0.6
		c-0.4,0.4-0.6,0.9-0.6,1.5c0,0.6,0.2,1.1,0.6,1.5c0.4,0.4,0.9,0.6,1.5,0.6c0.1,0,0.1,0,0.2,0c0.1,0,0.1,0,0.2,0
		c0.2,0,0.4-0.1,0.6-0.2c0.2-0.1,0.4-0.2,0.5-0.3v2.5c-0.3,0.2-0.7,0.3-1,0.4c-0.4,0.1-0.7,0.1-1.1,0.1c-1.2,0-2.3-0.4-3.2-1.2
		s-1.3-1.9-1.3-3.1c0-1.3,0.5-2.4,1.3-3.3c0.9-0.8,2-1.3,3.3-1.3c0.3,0,0.7,0,1,0.1C63.2,26.6,63.5,26.7,63.8,26.9L63.8,26.9z"/>
	<path class="st0" d="M68.6,21.5v6.2h0c0.3-0.4,0.7-0.8,1.2-1c0.4-0.2,0.9-0.3,1.5-0.3c1.1,0,1.8,0.3,2.4,1c0.5,0.6,0.8,1.5,0.8,2.6
		V35h-3v-4.3c0,0,0-0.1,0-0.1c0-0.5-0.1-0.9-0.2-1.3c-0.2-0.4-0.5-0.6-1.1-0.6c-0.6,0-1,0.2-1.2,0.6c-0.2,0.4-0.3,0.8-0.4,1.3
		c0,0,0,0,0,0.1c0,0,0,0,0,0V35h-3V21.5H68.6z"/>
	<path class="st0" d="M79,22.3c0.3,0.3,0.5,0.7,0.5,1.2c0,0.5-0.2,0.8-0.5,1.2c-0.3,0.3-0.7,0.5-1.2,0.5c-0.5,0-0.8-0.2-1.2-0.5
		c-0.3-0.3-0.5-0.7-0.5-1.2c0-0.5,0.2-0.9,0.5-1.2c0.3-0.3,0.7-0.5,1.2-0.5C78.3,21.8,78.7,22,79,22.3z M79.3,35h-3v-8.3h3V35z"/>
	<path class="st0" d="M84.2,35h-3V21.5h3V35z"/>
	<path class="st0" d="M94.7,31v0.3h-6.2c0,0.6,0.2,1.1,0.5,1.4c0.3,0.3,0.8,0.5,1.4,0.5c0.3,0,0.6-0.1,0.8-0.2
		c0.2-0.1,0.4-0.3,0.6-0.6h2.8c-0.2,1-0.8,1.7-1.6,2.2c-0.8,0.5-1.7,0.7-2.7,0.7c-1.4,0-2.5-0.4-3.4-1.1c-0.9-0.7-1.4-1.8-1.4-3.3
		c0-1.4,0.4-2.5,1.3-3.3c0.9-0.8,2-1.2,3.3-1.2c1.5,0,2.6,0.4,3.4,1.2C94.3,28.5,94.7,29.6,94.7,31L94.7,31z M92,29.6
		c-0.1-0.4-0.3-0.7-0.6-0.9c-0.3-0.2-0.7-0.4-1.1-0.4c-0.4,0-0.8,0.1-1.1,0.3c-0.3,0.2-0.5,0.5-0.6,1H92z"/>
</g>
<g class="st1">
	<path class="st0" d="M27.4,17.3v15.4c-1.5-0.2-2.9-0.7-4.2-1.5L23,31c-0.7-0.3-1.3-0.9-1.9-1.5c-2.1-2.2-3.3-5-3.3-8.1V6.2
		c1.6,0.3,3.1,0.8,4.5,1.7c0.3,0.1,0.5,0.3,0.7,0.4C25.8,10.4,27.4,13.8,27.4,17.3z"/>
</g>
<g class="st2">
	<path class="st0" d="M16.1,6.2v15.2c0,3.1-1.1,5.8-3.3,8c-0.6,0.6-1.3,1.1-1.9,1.5c-0.1,0.1-0.2,0.1-0.5,0.3l-1.2,0.6
		c-0.9,0.4-1.8,0.7-2.9,0.8V17.3c0-3.5,1.7-6.8,4.5-9c0.3-0.1,0.4-0.3,0.8-0.4C13.1,6.9,14.5,6.4,16.1,6.2z"/>
	<path class="st3" d="M17,4.4c0.3,0,0.5,0.1,0.7,0.1V4.4L17,4.4z M5.5,27.9L5.6,28v-0.2L5.5,27.9z"/>
</g>
<polygon class="st4" points="5.6,27.8 5.6,28 5.5,27.9 "/>
<g class="st5">
	<path class="st0" d="M21.5,32l-4.6,3.5L12.3,32c0.6-0.4,1.1-0.9,1.7-1.4c1.3-1.3,2.2-2.7,2.8-4.3c0.1-0.1,0.1-0.3,0.1-0.5
		c0,0.1,0,0.1,0.1,0.2c0.1,0.3,0.2,0.5,0.3,0.7c0.2,0.6,0.5,1.2,0.9,1.7c0.1,0.1,0.1,0.1,0.1,0.2c0.5,0.7,1.1,1.4,1.7,2.1
		c0.2,0.2,0.5,0.4,0.7,0.6C21,31.6,21.2,31.8,21.5,32z"/>
	<path class="st3" d="M16.9,25.8c0,0.2-0.1,0.4-0.1,0.5c0.1-0.1,0.1-0.2,0.2-0.3C16.9,26,16.9,25.9,16.9,25.8z"/>
</g>
</svg>
